<svg width="68" height="71" viewBox="0 0 68 71" fill="none" xmlns="http://www.w3.org/2000/svg">
<g opacity="0.8" filter="url(#filter0_d)">
<path fill-rule="evenodd" clip-rule="evenodd" d="M11.2925 34.4326L31.7985 13.9326C32.7266 13.0029 33.8288 12.2654 35.0422 11.7622C36.2556 11.259 37.5564 11 38.87 11C40.1836 11 41.4843 11.259 42.6977 11.7622C43.9111 12.2654 45.0134 13.0029 45.9415 13.9326L49.4765 17.4624C54.1648 22.1518 56.7986 28.5115 56.7986 35.1426C56.7986 41.7736 54.1648 48.1334 49.4765 52.8228L45.9415 56.3525C45.0135 57.2822 43.9113 58.0197 42.698 58.5229C41.4847 59.0262 40.184 59.2852 38.8705 59.2852C37.5569 59.2852 36.2563 59.0262 35.043 58.5229C33.8296 58.0197 32.7275 57.2822 31.7995 56.3525L11.2925 35.8525C11.1051 35.6637 11 35.4086 11 35.1426C11 34.8766 11.1051 34.6214 11.2925 34.4326V34.4326Z" fill="#FBAD03"/>
</g>
<path d="M41 38.8L39.5734 40.2L34 34.6L39.5734 29L41 30.4L36.8 34.6L41 38.8Z" fill="white"/>
<defs>
<filter id="filter0_d" x="0.0459995" y="0.0459995" width="67.7066" height="70.1932" filterUnits="userSpaceOnUse" color-interpolation-filters="sRGB">
<feFlood flood-opacity="0" result="BackgroundImageFix"/>
<feColorMatrix in="SourceAlpha" type="matrix" values="0 0 0 0 0 0 0 0 0 0 0 0 0 0 0 0 0 0 127 0"/>
<feOffset/>
<feGaussianBlur stdDeviation="5.477"/>
<feColorMatrix type="matrix" values="0 0 0 0 0.901961 0 0 0 0 0.901961 0 0 0 0 0.901961 0 0 0 0.3 0"/>
<feBlend mode="normal" in2="BackgroundImageFix" result="effect1_dropShadow"/>
<feBlend mode="normal" in="SourceGraphic" in2="effect1_dropShadow" result="shape"/>
</filter>
</defs>
</svg>